v -428.610107 674.123535 218.530609
v -428.610107 674.123535 230.118805
v -437.835114 674.123535 230.118805
v -437.835114 674.123535 218.530609
v -437.835114 687.219116 233.531113
v -428.610107 687.219116 233.531113
v -428.610107 687.219116 218.530609
v -437.835114 687.219116 218.530609
v -437.835114 676.028320 231.285614
v -428.610107 676.028320 231.285614
v -437.835114 677.062927 233.531113
v -428.610107 677.062927 233.531113

vn 0.707083 -0.707083 0.000000
vn 0.611866 -0.690054 0.386517
vn -0.611866 -0.690054 0.386517
vn -0.707083 -0.707083 0.000000
vn -0.577349 0.577349 0.577349
vn 0.577349 0.577349 0.577349
vn 0.707083 0.707083 0.000000
vn -0.707083 0.707083 0.000000
vn -0.778680 -0.468978 0.416730
vn 0.778680 -0.468978 0.416730
vn -0.603504 -0.429945 0.671468
vn 0.603504 -0.429945 0.671468

vt 0.414300 0.738100
vt 0.414300 0.807200
vt 0.359300 0.807200
vt 0.359300 0.738100
vt 0.359300 0.894500
vt 0.414300 0.894500
vt 0.414300 0.983900
vt 0.359300 0.983900
vt 0.491500 0.903100
vt 0.498400 0.914500
vt 0.422400 0.903100
vt 0.414300 0.820500
vt 0.359300 0.820500
vt 0.434600 0.816400
vt 0.503700 0.816400
vt 0.427700 0.827800
vt 0.422400 0.981200
vt 0.511800 0.981200
vt 0.359300 0.833900
vt 0.414300 0.833900
vt 0.503700 0.894500
vt 0.511800 0.920600
f 1/1/1 2/2/2 3/3/3
f 1/1/1 3/3/3 4/4/4
f 5/5/5 6/6/6 7/7/7
f 5/5/5 7/7/7 8/8/8
f 3/9/3 9/10/9 4/11/4
f 10/12/10 9/13/9 3/3/3
f 10/12/10 3/3/3 2/2/2
f 2/14/2 1/15/1 10/16/10
f 8/17/8 4/11/4 9/10/9
f 8/17/8 9/10/9 5/18/5
f 5/5/5 11/19/11 12/20/12
f 5/5/5 12/20/12 6/6/6
f 10/16/10 1/15/1 7/21/7
f 10/16/10 7/21/7 6/6/6
f 5/18/5 9/10/9 11/22/11
f 10/12/10 12/20/12 11/19/11
f 10/12/10 11/19/11 9/13/9
f 10/16/10 6/6/6 12/20/12